<svg width="30" height="30" viewBox="0 0 30 30" fill="none" xmlns="http://www.w3.org/2000/svg">
<circle cx="15" cy="15" r="15" fill="black"/>
<g clip-path="url(#clip0_403_5)">
<path fill-rule="evenodd" clip-rule="evenodd" d="M12.6869 6.1414C11.4551 6.76136 10.4474 7.28597 10.4476 7.30731C10.4482 7.36238 13.4038 8.80867 13.5087 8.80514C13.5564 8.8036 13.9026 8.64963 14.278 8.46303L14.9605 8.12382L15.706 8.49404L16.4514 8.86434L17.6721 8.33434C19.5115 7.53571 19.7025 7.44819 19.6726 7.41879C19.6329 7.37978 18.9731 7.03732 17.1831 6.1268C16.3181 5.68673 15.4785 5.25526 15.3173 5.16795C15.1561 5.08064 15.0022 5.01041 14.9754 5.01177C14.9485 5.01313 13.9186 5.52147 12.6869 6.1414ZM7.28453 8.84443L6.00231 9.48437V12.2929C6.00231 13.8376 6.01915 15.1015 6.0398 15.1015C6.06038 15.1015 6.69124 14.8372 7.44166 14.5143L8.80608 13.9271V10.9667L9.47282 11.3177C9.98661 11.5879 10.5007 11.8576 11.0151 12.1267L11.8906 12.5847L12.2802 12.4145C12.5245 12.3076 12.7684 12.1996 13.0117 12.0906C13.1997 12.006 13.6614 11.8051 14.0375 11.6441C14.4136 11.483 14.7617 11.3211 14.8111 11.2842C14.8767 11.2351 14.077 10.8082 11.8533 9.70484C10.1772 8.87316 8.75199 8.19534 8.68627 8.19859C8.62054 8.20184 7.98976 8.49243 7.28453 8.84443ZM19.9037 9.02414C19.0304 9.40505 18.3153 9.73193 18.3145 9.75058C18.3137 9.76919 18.7897 10.0426 19.3722 10.3581C19.9548 10.6737 20.4314 10.9488 20.4314 10.9695C20.4314 10.9901 19.9159 11.2315 19.286 11.5059C18.6559 11.7802 17.0635 12.4751 15.7471 13.05L11.3363 14.9764C10.2268 15.4611 9.22664 15.8979 9.11381 15.9473C6.84754 16.9385 6.22462 17.2136 6.13908 17.2608C6.05306 17.3083 6.03358 17.5845 6.01827 18.9706L6 20.6237L7.14661 21.1882L8.2932 21.7527L9.88313 21.0594C10.7576 20.6781 11.4731 20.3462 11.4731 20.3217C11.4731 20.2973 11.3115 20.1956 11.114 20.0956C10.9165 19.9955 10.5088 19.774 10.2079 19.6033C9.90707 19.4325 9.60706 19.2758 9.5412 19.2551C9.47535 19.2343 9.42243 19.1981 9.42351 19.1745C9.4246 19.1509 10.1247 18.8296 10.9793 18.4603C12.639 17.7433 13.9092 17.1907 16.6361 15.9992C17.8554 15.4665 19.0749 14.9342 20.2946 14.4021C21.3665 13.9346 22.6128 13.3886 23.0642 13.1888L23.8848 12.8255L23.903 11.1535L23.9214 9.4816L22.7584 8.90485C22.1188 8.58767 21.572 8.32892 21.5434 8.32987C21.5147 8.33074 20.7769 8.64313 19.9037 9.02414ZM23.5732 15.056C23.4018 15.1369 23.0633 15.2883 22.821 15.3925C22.5787 15.4967 22.1188 15.6972 21.7991 15.8381L21.2178 16.0943L21.2045 17.5621C21.1972 18.3694 21.1664 19.0264 21.1362 19.0221C21.0674 19.0122 19.9779 18.4724 18.8828 17.9054C18.0924 17.4962 18.0428 17.48 17.8571 17.5689C17.7497 17.6203 17.1079 17.8984 16.4309 18.187C15.7539 18.4755 15.1779 18.7305 15.1508 18.7536C15.1238 18.7766 16.4864 19.4902 18.1788 20.3393L21.2559 21.8832L22.5704 21.2262C23.2933 20.8649 23.908 20.5353 23.9363 20.4939C24 20.4007 23.9945 14.8962 23.9307 14.9036C23.9055 14.9065 23.7446 14.9751 23.5732 15.056ZM16.2942 21.5169C16.0661 21.6116 15.8382 21.7065 15.6103 21.8015C14.9221 22.0891 15.057 22.0987 14.2383 21.7049C13.693 21.4426 13.458 21.3617 13.356 21.401C13.2794 21.4304 12.6208 21.7167 11.8923 22.0372C11.1637 22.3576 10.5424 22.6198 10.5115 22.6198C10.2058 22.6198 10.714 22.9132 12.6749 23.8689L14.9745 24.9896L15.942 24.5281C16.4742 24.2742 17.5476 23.7659 18.3273 23.3984C19.1071 23.0309 19.7354 22.7207 19.7236 22.709C19.7118 22.6973 19.0584 22.3731 18.2717 21.9886L16.8412 21.2895L16.2942 21.5169Z" fill="#A4CBC8"/>
</g>
<defs>
<clipPath id="clip0_403_5">
<rect width="18" height="20" fill="white" transform="translate(6 5)"/>
</clipPath>
</defs>
</svg>
